<mxfile host="app.diagrams.net" modified="2024-01-12T23:01:13.029Z" agent="Mozilla/5.0 (Macintosh; Intel Mac OS X 10_15_7) AppleWebKit/537.36 (KHTML, like Gecko) Chrome/120.0.0.0 Safari/537.36" version="22.1.18" etag="8Cg7Vmia1Uh0wcvNNg-D" type="github">
  <diagram name="Page-1" id="R0B7kFi3Ye-ktu-MtSOj">
    <mxGraphModel>
      <root>
        <mxCell id="0" />
        <mxCell id="1" parent="0" />
      </root>
    </mxGraphModel>
  </diagram>
</mxfile>
